<?xml version="1.0" standalone="no"?>
<!DOCTYPE svg PUBLIC "-//W3C//DTD SVG 20010904//EN"
 "http://www.w3.org/TR/2001/REC-SVG-20010904/DTD/svg10.dtd">
<svg version="1.0" xmlns="http://www.w3.org/2000/svg"
 width="256.000000pt" height="256.000000pt" viewBox="0 0 256.000000 256.000000"
 preserveAspectRatio="xMidYMid meet">

<g transform="translate(0.000000,256.000000) scale(0.100000,-0.100000)"
fill="#000000" stroke="none">
<path d="M1115 2539 c-272 -35 -531 -164 -730 -364 -185 -185 -297 -393 -351
-655 -24 -115 -25 -352 -1 -472 103 -515 485 -902 1000 -1009 142 -30 352 -30
494 0 512 107 888 486 999 1006 23 109 23 350 1 465 -50 256 -171 484 -352
665 -278 279 -670 413 -1060 364z m456 -52 c248 -65 445 -179 610 -355 164
-174 273 -388 320 -627 18 -92 18 -358 0 -450 -50 -251 -172 -479 -353 -657
-373 -368 -934 -461 -1403 -234 -344 167 -571 445 -673 825 -23 86 -25 115
-26 286 -1 177 1 197 27 297 63 242 176 439 343 599 169 162 345 259 567 313
140 35 141 35 327 31 137 -3 182 -7 261 -28z"/>
<path d="M1248 2493 c17 -2 47 -2 65 0 17 2 3 4 -33 4 -36 0 -50 -2 -32 -4z"/>
<path d="M1133 2483 c9 -2 23 -2 30 0 6 3 -1 5 -18 5 -16 0 -22 -2 -12 -5z"/>
<path d="M1403 2483 c9 -2 25 -2 35 0 9 3 1 5 -18 5 -19 0 -27 -2 -17 -5z"/>
<path d="M1058 2473 c6 -2 18 -2 25 0 6 3 1 5 -13 5 -14 0 -19 -2 -12 -5z"/>
<path d="M1478 2473 c6 -2 18 -2 25 0 6 3 1 5 -13 5 -14 0 -19 -2 -12 -5z"/>
<path d="M1018 2463 c7 -3 16 -2 19 1 4 3 -2 6 -13 5 -11 0 -14 -3 -6 -6z"/>
<path d="M1538 2463 c7 -3 16 -2 19 1 4 3 -2 6 -13 5 -11 0 -14 -3 -6 -6z"/>
<path d="M1578 2453 c7 -3 16 -2 19 1 4 3 -2 6 -13 5 -11 0 -14 -3 -6 -6z"/>
<path d="M1028 2422 c-11 -2 -18 -18 -23 -53 -4 -27 -9 -49 -11 -49 -2 0 -18
16 -36 36 -23 24 -38 33 -50 29 -9 -4 -15 -12 -13 -18 2 -7 11 -38 19 -69 12
-40 20 -56 30 -52 11 4 11 12 -1 46 -7 22 -12 42 -10 45 3 2 18 -12 35 -32 17
-19 34 -35 36 -35 3 0 8 20 12 45 8 56 22 58 30 5 4 -23 12 -40 20 -40 22 0
22 12 0 80 -16 50 -25 65 -38 62z"/>
<path d="M830 2410 c-8 -5 -10 -10 -5 -10 6 0 17 5 25 10 8 5 11 10 5 10 -5 0
-17 -5 -25 -10z"/>
<path d="M1200 2382 c9 -49 3 -62 -25 -62 -29 0 -33 7 -37 53 -1 24 -7 37 -16
37 -21 0 -10 -90 14 -107 19 -14 61 -8 83 12 17 17 6 105 -13 105 -10 0 -12
-10 -6 -38z"/>
<path d="M1269 2404 c-18 -21 0 -48 36 -54 16 -3 30 -11 33 -19 4 -11 -4 -13
-37 -7 -23 3 -41 2 -41 -3 0 -24 81 -29 101 -5 18 22 1 45 -45 58 -21 6 -34
14 -30 19 11 11 52 8 60 -4 4 -8 9 -7 15 2 17 28 -69 40 -92 13z"/>
<path d="M1406 2388 c-15 -70 -13 -88 8 -93 58 -11 86 -11 86 2 0 9 -13 13
-40 13 -29 0 -40 4 -40 15 0 10 10 15 30 15 17 0 30 5 30 10 0 6 -11 10 -25
10 -16 0 -25 6 -25 16 0 14 7 15 40 10 42 -7 56 7 18 18 -49 13 -77 7 -82 -16z"/>
<path d="M1740 2400 c8 -5 20 -10 25 -10 6 0 3 5 -5 10 -8 5 -19 10 -25 10 -5
0 -3 -5 5 -10z"/>
<path d="M738 2369 c-32 -16 -58 -32 -58 -34 0 -5 119 52 129 61 13 12 -22 -1
-71 -27z"/>
<path d="M1546 2358 c-21 -29 -20 -51 2 -77 20 -25 73 -31 97 -11 23 19 19 76
-7 94 -33 23 -74 20 -92 -6z m80 -19 c24 -27 8 -54 -32 -54 -23 0 -30 5 -32
23 -4 25 13 52 33 52 6 0 20 -9 31 -21z"/>
<path d="M1865 2343 c6 -6 28 -20 50 -32 22 -13 31 -15 20 -6 -22 18 -86 53
-70 38z"/>
<path d="M1752 2274 c-22 -45 -28 -65 -20 -70 7 -4 13 -3 15 3 2 6 10 18 17
28 12 16 14 16 44 1 35 -18 38 -26 21 -58 -9 -16 -8 -22 2 -29 19 -11 79 110
65 129 -8 10 -13 8 -23 -12 -16 -31 -13 -30 -57 -9 -34 16 -34 17 -21 44 12
22 12 28 1 32 -8 3 -24 -18 -44 -59z"/>
<path d="M644 2314 c-18 -14 -18 -15 4 -4 12 6 22 13 22 15 0 8 -5 6 -26 -11z"/>
<path d="M784 2304 c-7 -3 -10 -13 -7 -23 6 -24 -11 -35 -27 -16 -11 14 -40
10 -40 -5 0 -4 13 -13 29 -19 15 -7 33 -23 39 -37 7 -13 15 -24 20 -24 18 0
21 13 8 32 -9 13 -11 31 -6 58 7 40 6 43 -16 34z"/>
<path d="M1965 2283 c24 -26 128 -103 107 -81 -13 14 -44 40 -70 58 -26 18
-42 28 -37 23z"/>
<path d="M550 2249 l-35 -30 38 26 c33 24 43 35 34 35 -1 0 -18 -14 -37 -31z"/>
<path d="M414 2128 c-84 -87 -199 -238 -181 -238 2 0 26 32 52 72 26 39 88
113 138 165 49 51 88 93 85 93 -3 0 -45 -42 -94 -92z"/>
<path d="M1906 2172 c-31 -52 -32 -55 -18 -60 14 -4 75 86 67 98 -11 17 -19
11 -49 -38z"/>
<path d="M1256 2192 c-5 -4 3 -70 11 -92 4 -11 8 -8 13 10 14 45 11 87 -5 87
-8 0 -17 -2 -19 -5z"/>
<path d="M571 2171 c-45 -45 -10 -125 46 -105 14 5 35 22 47 37 19 26 19 30 5
55 -19 36 -69 42 -98 13z m73 -23 c22 -35 -27 -74 -59 -48 -20 17 -19 47 3 59
23 14 42 10 56 -11z"/>
<path d="M1210 2180 c-12 -8 -12 -14 3 -46 23 -48 15 -55 -11 -9 -22 36 -36
43 -48 24 -3 -6 8 -26 26 -44 28 -29 35 -32 52 -22 15 10 18 19 12 52 -7 48
-14 57 -34 45z"/>
<path d="M1304 2145 c-9 -61 -1 -65 24 -13 21 45 20 58 -3 58 -9 0 -16 -17
-21 -45z"/>
<path d="M2151 2125 c28 -33 70 -84 92 -112 22 -29 41 -53 44 -53 10 0 -64 93
-124 157 -57 60 -58 61 -12 8z"/>
<path d="M1340 2129 c-12 -23 -19 -44 -15 -47 11 -11 68 55 62 72 -10 26 -25
18 -47 -25z"/>
<path d="M1972 2158 c-18 -18 -15 -33 14 -67 19 -23 22 -31 11 -31 -9 0 -24
11 -35 25 -22 28 -32 32 -32 11 0 -20 59 -68 79 -64 25 5 25 47 0 74 -12 13
-20 27 -16 30 11 11 39 -5 44 -26 6 -24 23 -27 23 -5 0 19 -44 65 -63 65 -7 0
-18 -5 -25 -12z"/>
<path d="M1370 2105 c-43 -44 -34 -54 20 -20 34 21 39 29 30 41 -7 8 -13 14
-14 14 -1 0 -17 -16 -36 -35z"/>
<path d="M1120 2105 c-9 -11 -4 -18 29 -34 54 -28 69 -26 40 5 -35 38 -55 46
-69 29z"/>
<path d="M488 2104 c-4 -3 0 -22 8 -41 19 -43 14 -49 -25 -30 -25 12 -32 13
-41 2 -9 -10 1 -18 46 -35 31 -11 61 -17 65 -13 9 9 -29 123 -41 123 -4 0 -9
-3 -12 -6z"/>
<path d="M1387 2074 c-22 -14 -37 -28 -34 -30 5 -5 97 16 97 21 0 11 -13 35
-19 34 -3 0 -23 -11 -44 -25z"/>
<path d="M2086 2082 c-3 -5 1 -15 10 -22 13 -12 11 -17 -17 -46 -43 -45 -28
-67 17 -23 32 31 34 32 53 15 10 -9 22 -13 25 -8 3 5 -14 28 -38 51 -24 24
-46 38 -50 33z"/>
<path d="M1100 2046 c0 -17 22 -26 66 -26 45 0 43 14 -5 28 -50 15 -61 15 -61
-2z"/>
<path d="M1398 2038 c-54 -14 -47 -28 13 -28 42 0 50 3 47 17 -4 21 -15 23
-60 11z"/>
<path d="M1261 2026 c-9 -10 -8 -16 3 -25 10 -9 16 -8 25 3 9 10 8 16 -3 25
-10 9 -16 8 -25 -3z"/>
<path d="M1100 1990 c0 -23 8 -24 61 -8 54 16 49 28 -11 28 -43 0 -50 -3 -50
-20z"/>
<path d="M387 1987 c-6 -16 79 -91 88 -77 8 14 1 23 -44 59 -27 21 -40 27 -44
18z"/>
<path d="M1350 1995 c0 -5 85 -45 95 -45 1 0 5 9 8 19 3 15 -2 20 -25 25 -38
7 -78 8 -78 1z"/>
<path d="M1156 1964 c-49 -18 -52 -20 -36 -38 10 -14 16 -12 46 11 19 14 37
23 40 20 3 -3 -11 -17 -30 -32 -29 -22 -34 -30 -25 -41 16 -20 21 -18 51 24
22 32 24 40 13 55 -7 9 -14 17 -16 16 -2 0 -22 -7 -43 -15z"/>
<path d="M1331 1956 c-9 -11 -7 -22 10 -52 13 -22 24 -41 26 -43 1 -2 10 2 18
9 14 12 12 17 -15 45 -42 43 -38 57 5 15 32 -31 36 -33 51 -18 15 15 13 18
-24 37 -49 25 -56 25 -71 7z"/>
<path d="M2163 1959 c-67 -25 -39 -129 35 -129 26 0 52 31 52 61 -1 45 -48 83
-87 68z m53 -40 c24 -27 8 -54 -32 -54 -23 0 -30 5 -32 23 -4 25 13 52 33 52
6 0 20 -9 31 -21z"/>
<path d="M2250 1950 c-12 -8 -10 -10 8 -10 13 0 20 4 17 10 -7 12 -6 12 -25 0z"/>
<path d="M344 1929 c-4 -7 1 -18 10 -25 17 -12 17 -14 1 -38 -18 -28 -30 -32
-40 -16 -7 11 -25 4 -25 -9 0 -4 20 -21 45 -39 30 -21 47 -27 51 -20 4 7 -2
18 -14 26 -20 13 -20 15 -5 40 9 15 18 29 20 31 2 2 11 -3 21 -12 17 -16 32
-14 32 4 0 5 -20 22 -44 39 -31 21 -47 27 -52 19z"/>
<path d="M1215 1900 c-22 -34 -24 -44 -13 -51 22 -14 25 -11 38 36 17 61 7 66
-25 15z"/>
<path d="M1294 1923 c2 -10 7 -33 11 -50 6 -30 28 -44 38 -25 6 11 -32 92 -44
92 -6 0 -8 -8 -5 -17z"/>
<path d="M1255 1884 c-7 -51 -4 -59 21 -50 11 4 14 13 10 29 -3 12 -6 32 -6
45 0 40 -18 23 -25 -24z"/>
<path d="M2325 1890 c9 -16 18 -30 21 -30 2 0 -2 14 -11 30 -9 17 -18 30 -21
30 -2 0 2 -13 11 -30z"/>
<path d="M195 1829 c-9 -17 -15 -33 -13 -35 3 -2 12 12 21 31 21 43 13 47 -8
4z"/>
<path d="M2238 1806 c-21 -11 -38 -27 -38 -33 0 -16 6 -16 31 -3 26 15 37 -12
17 -43 -15 -22 -14 -47 2 -47 5 0 12 9 15 20 5 15 12 19 29 14 40 -10 50 17
24 70 -12 25 -27 46 -32 45 -6 -1 -28 -11 -48 -23z m72 -53 c0 -20 -18 -16
-30 7 -15 28 -1 49 17 25 7 -11 13 -25 13 -32z"/>
<path d="M1210 1811 c0 -13 26 -21 70 -21 46 0 72 9 64 21 -7 12 -134 12 -134
0z"/>
<path d="M251 1764 c-26 -33 -27 -76 -2 -98 27 -25 61 -16 82 19 19 33 24 75
9 75 -5 0 -10 -9 -10 -21 0 -49 -39 -76 -68 -47 -18 18 -15 43 8 63 11 10 20
22 20 27 0 16 -19 8 -39 -18z"/>
<path d="M1262 1755 c2 -14 8 -26 13 -26 6 0 11 12 13 26 2 18 -1 25 -13 25
-12 0 -15 -7 -13 -25z"/>
<path d="M1232 1750 c0 -14 2 -19 5 -12 2 6 2 18 0 25 -3 6 -5 1 -5 -13z"/>
<path d="M1317 1748 c6 -31 3 -32 -84 -28 -25 1 -43 -3 -43 -9 0 -7 31 -11 85
-11 50 0 85 4 85 10 0 6 -6 10 -13 10 -7 0 -18 12 -24 28 l-12 27 6 -27z"/>
<path d="M2390 1765 c0 -5 5 -17 10 -25 5 -8 10 -10 10 -5 0 6 -5 17 -10 25
-5 8 -10 11 -10 5z"/>
<path d="M156 1745 c-9 -26 -7 -32 5 -12 6 10 9 21 6 23 -2 3 -7 -2 -11 -11z"/>
<path d="M2410 1715 c0 -5 5 -17 10 -25 5 -8 10 -10 10 -5 0 6 -5 17 -10 25
-5 8 -10 11 -10 5z"/>
<path d="M1223 1683 c32 -2 81 -2 110 0 29 2 3 3 -58 3 -60 0 -84 -1 -52 -3z"/>
<path d="M2310 1669 c-52 -24 -54 -25 -46 -38 4 -6 24 -2 54 11 57 25 58 26
46 38 -5 5 -26 1 -54 -11z"/>
<path d="M1130 1633 c0 -17 5 -35 10 -38 15 -9 12 -42 -3 -48 -19 -7 -34 4
-38 27 -8 40 -33 41 -96 3 -34 -21 -70 -37 -82 -37 -16 0 -21 -6 -21 -24 0
-13 5 -26 11 -28 19 -6 -15 -89 -42 -104 -18 -10 -86 -13 -276 -14 -180 0
-253 -3 -253 -11 0 -8 74 -10 264 -7 263 4 265 4 290 28 15 13 26 31 26 41 0
10 5 21 11 25 7 4 9 21 5 45 -5 32 -3 39 10 39 9 0 39 14 66 30 52 32 72 38
66 18 -5 -13 32 -48 50 -48 5 0 17 9 27 20 17 18 17 21 1 45 l-16 25 130 0
130 0 -16 -26 c-16 -24 -16 -26 4 -46 25 -25 48 -18 64 19 7 15 13 30 14 32 2
2 30 -13 62 -33 33 -20 69 -36 81 -36 18 0 19 -3 9 -25 -9 -20 -8 -33 7 -67
35 -81 22 -78 334 -76 l276 2 -271 5 c-249 6 -274 8 -293 25 -12 11 -21 27
-21 36 0 9 -6 22 -12 28 -10 10 -10 17 0 32 6 11 12 29 12 40 0 15 -7 20 -29
20 -17 0 -56 16 -88 35 -32 19 -62 35 -66 35 -4 0 -15 -16 -23 -35 -15 -37
-40 -46 -51 -19 -3 8 -1 20 6 27 6 6 11 25 11 42 l0 30 -140 0 -140 0 0 -32z
m270 7 c0 -6 -50 -10 -130 -10 -80 0 -130 4 -130 10 0 6 50 10 130 10 80 0
130 -4 130 -10z"/>
<path d="M121 1644 c0 -11 3 -14 6 -6 3 7 2 16 -1 19 -3 4 -6 -2 -5 -13z"/>
<path d="M191 1618 c-5 -13 -12 -37 -15 -54 -7 -31 -5 -32 40 -48 58 -20 64
-20 64 -2 0 7 -9 16 -20 19 -28 7 -25 25 8 40 27 12 42 25 42 40 0 4 -9 3 -19
-3 -28 -15 -38 -13 -44 10 -7 28 -45 26 -56 -2z m39 -22 c0 -25 -12 -46 -26
-46 -7 0 -11 7 -9 15 3 8 7 22 10 30 6 19 25 20 25 1z"/>
<path d="M2441 1624 c0 -11 3 -14 6 -6 3 7 2 16 -1 19 -3 4 -6 -2 -5 -13z"/>
<path d="M2305 1590 c-20 -22 -14 -80 11 -100 22 -19 28 -5 10 22 -9 12 -16
28 -16 35 0 13 27 43 40 43 18 0 40 -33 40 -61 0 -16 5 -29 10 -29 16 0 12 63
-6 88 -19 28 -64 29 -89 2z"/>
<path d="M101 1574 c0 -11 3 -14 6 -6 3 7 2 16 -1 19 -3 4 -6 -2 -5 -13z"/>
<path d="M2461 1544 c0 -11 3 -14 6 -6 3 7 2 16 -1 19 -3 4 -6 -2 -5 -13z"/>
<path d="M91 1524 c0 -11 3 -14 6 -6 3 7 2 16 -1 19 -3 4 -6 -2 -5 -13z"/>
<path d="M985 1520 c-3 -5 -2 -10 4 -10 5 0 13 5 16 10 3 6 2 10 -4 10 -5 0
-13 -4 -16 -10z"/>
<path d="M2471 1494 c0 -11 3 -14 6 -6 3 7 2 16 -1 19 -3 4 -6 -2 -5 -13z"/>
<path d="M81 1474 c0 -11 3 -14 6 -6 3 7 2 16 -1 19 -3 4 -6 -2 -5 -13z"/>
<path d="M183 1447 c-42 -15 -63 -27 -63 -38 0 -9 26 -34 58 -55 73 -50 72
-49 72 -26 0 11 -8 22 -18 24 -15 4 -17 13 -14 42 4 32 12 41 35 37 4 0 7 8 7
19 0 24 1 24 -77 -3z m14 -63 c-6 -7 -37 7 -37 16 0 15 35 16 38 2 2 -7 2 -16
-1 -18z"/>
<path d="M2345 1435 c-28 -27 -29 -33 -14 -72 12 -32 26 -43 55 -43 50 0 73
81 34 120 -26 26 -46 25 -75 -5z m65 -19 c6 -8 10 -25 8 -38 -4 -30 -46 -38
-65 -12 -17 23 -16 29 3 48 19 20 38 20 54 2z"/>
<path d="M2482 1425 c0 -16 2 -22 5 -12 2 9 2 23 0 30 -3 6 -5 -1 -5 -18z"/>
<path d="M72 1390 c0 -19 2 -27 5 -17 2 9 2 25 0 35 -3 9 -5 1 -5 -18z"/>
<path d="M1172 1373 c-40 -20 -98 -85 -114 -130 l-12 -33 -355 -3 -356 -2 357
-3 358 -2 20 43 c26 56 87 115 136 132 22 8 30 14 19 14 -11 0 -35 -7 -53 -16z"/>
<path d="M1320 1365 c0 -18 7 -26 25 -31 33 -8 100 -82 114 -127 l13 -37 384
0 c249 0 384 4 384 10 0 6 -132 10 -375 10 l-375 0 -24 49 c-26 50 -72 96
-113 112 -23 9 -32 29 -13 29 40 0 115 -70 149 -137 l21 -43 368 2 367 3 -362
5 -362 5 -33 55 c-57 95 -168 158 -168 95z"/>
<path d="M1195 1344 c-46 -24 -83 -63 -102 -109 l-17 -42 -365 -7 c-333 -7
-383 -9 -370 -19 2 -2 171 -1 376 1 l372 4 12 35 c14 45 70 107 109 123 17 7
30 16 30 21 0 13 -11 11 -45 -7z"/>
<path d="M2493 1285 c0 -44 2 -61 4 -37 2 23 2 59 0 80 -2 20 -4 1 -4 -43z"/>
<path d="M1257 1333 c-3 -5 10 -8 29 -9 21 0 30 3 22 8 -16 10 -45 10 -51 1z"/>
<path d="M1225 1299 c-4 -6 -5 -12 -2 -15 2 -3 7 2 10 11 7 17 1 20 -8 4z"/>
<path d="M177 1222 l-27 -28 25 -24 26 -24 27 27 27 27 -26 25 -25 25 -27 -28z"/>
<path d="M2360 1225 l-24 -26 25 -25 25 -25 24 26 24 26 -25 25 -25 25 -24
-26z"/>
<path d="M1320 1222 c0 -18 -45 -25 -72 -12 -22 11 -22 10 -4 -4 11 -9 27 -16
36 -16 22 0 57 26 47 36 -4 4 -7 2 -7 -4z"/>
<path d="M72 1170 c0 -19 2 -27 5 -17 2 9 2 25 0 35 -3 9 -5 1 -5 -18z"/>
<path d="M2482 1135 c0 -16 2 -22 5 -12 2 9 2 23 0 30 -3 6 -5 -1 -5 -18z"/>
<path d="M340 1140 c0 -40 -4 -40 371 -40 330 0 359 1 368 18 9 15 10 15 11
-5 l0 -23 -372 -2 -373 -3 375 -5 c206 -3 366 -7 355 -8 -11 -1 -175 -3 -365
-4 l-345 -2 308 -3 c199 -2 306 -7 302 -13 -4 -6 -123 -11 -308 -12 -166 -1
-265 -4 -219 -5 l82 -4 0 -39 0 -39 -72 -4 -73 -3 73 -2 72 -2 0 -35 0 -34
-57 -4 -58 -3 58 -2 57 -2 0 -34 c0 -33 -2 -35 -37 -39 l-38 -4 38 -1 37 -2 0
-60 c0 -33 4 -60 10 -60 6 0 10 67 10 180 l0 180 120 0 120 0 0 -265 c0 -243
-1 -265 -17 -265 -11 0 -14 -3 -7 -10 5 -5 50 -10 99 -12 l90 -3 6 -45 6 -45
1 53 2 52 50 0 50 0 2 -72 1 -73 7 65 7 65 1 -67 c1 -38 6 -68 12 -68 6 0 10
138 10 395 l0 395 170 0 170 0 0 -397 c0 -288 3 -394 11 -386 6 6 9 35 7 67
-1 31 0 56 4 56 4 0 9 -28 11 -62 l3 -63 2 73 2 72 50 0 50 0 2 -52 1 -53 6
45 6 45 90 3 c49 2 94 7 99 12 7 7 4 10 -6 10 -15 0 -16 26 -15 263 l2 262
118 3 117 3 0 -186 c0 -122 3 -184 10 -180 6 3 10 33 10 65 l0 59 43 4 42 4
-42 1 c-42 2 -43 3 -43 37 l0 34 78 4 77 3 -77 2 -78 2 0 35 0 34 88 4 87 3
-87 2 -88 2 0 40 0 39 93 4 c50 1 -46 4 -215 5 -168 1 -314 5 -324 9 -12 4
-15 3 -10 -5 5 -8 -5 -12 -33 -12 -32 0 -39 3 -35 15 4 9 18 15 33 14 l26 -1
-25 -8 c-21 -7 -22 -8 -5 -9 12 -1 25 3 31 9 6 6 138 11 334 13 l325 2 -380 5
-380 5 385 5 385 5 -382 3 -383 2 0 23 c1 20 2 20 11 5 9 -17 38 -18 379 -18
l370 0 0 24 0 24 -945 0 c-520 0 -945 -4 -945 -8z m750 -90 c0 -5 -4 -10 -10
-10 -5 0 -10 5 -10 10 0 6 5 10 10 10 6 0 10 -4 10 -10z m400 0 c0 -5 -4 -10
-10 -10 -5 0 -10 5 -10 10 0 6 5 10 10 10 6 0 10 -4 10 -10z m-422 -16 c18 -5
22 -13 22 -45 0 -28 -4 -39 -15 -39 -8 0 -15 7 -15 15 0 11 -11 15 -40 15 -29
0 -40 -4 -40 -15 0 -12 -17 -15 -90 -15 l-90 0 0 40 0 39 93 4 c50 1 106 4
122 5 17 1 40 -1 53 -4z m692 -43 l0 -41 -90 0 c-73 0 -90 3 -90 15 0 11 -11
15 -40 15 -29 0 -40 -4 -40 -15 0 -8 -7 -15 -15 -15 -11 0 -15 11 -15 38 l0
37 145 3 145 3 0 -40z m-710 -261 l0 -240 -30 0 -30 0 0 240 0 240 30 0 30 0
0 -240z m520 0 l0 -240 -30 0 -30 0 0 240 0 240 30 0 30 0 0 -240z m-590 175
l0 -36 -87 3 -88 3 -3 33 -3 32 90 0 91 0 0 -35z m110 0 c0 -24 -5 -35 -15
-35 -10 0 -15 11 -15 35 0 24 5 35 15 35 10 0 15 -11 15 -35z m410 0 c0 -24
-5 -35 -15 -35 -10 0 -15 11 -15 35 0 24 5 35 15 35 10 0 15 -11 15 -35z m258
3 l-3 -33 -87 -3 -88 -3 0 36 0 35 91 0 90 0 -3 -32z m-778 -83 l0 -36 -87 3
-88 3 -3 33 -3 32 90 0 91 0 0 -35z m110 0 c0 -24 -5 -35 -15 -35 -10 0 -15
11 -15 35 0 24 5 35 15 35 10 0 15 -11 15 -35z m410 0 c0 -24 -5 -35 -15 -35
-10 0 -15 11 -15 35 0 24 5 35 15 35 10 0 15 -11 15 -35z m258 3 l-3 -33 -87
-3 -88 -3 0 36 0 35 91 0 90 0 -3 -32z m-780 -118 l0 -70 -88 0 -88 0 0 70 0
70 88 0 88 0 0 -70z m112 0 c0 -56 -3 -70 -15 -70 -12 0 -15 14 -15 70 0 56 3
70 15 70 12 0 15 -14 15 -70z m409 0 c0 -54 -4 -70 -15 -70 -11 0 -14 16 -14
70 0 55 3 70 15 70 11 0 14 -15 14 -70z m259 0 l0 -70 -89 0 -89 0 0 70 0 70
89 0 89 0 0 -70z m-778 -115 l0 -35 -90 0 -90 0 0 28 c0 16 3 32 7 35 3 4 44
7 90 7 l83 0 0 -35z m110 0 c0 -24 -5 -35 -15 -35 -10 0 -15 11 -15 35 0 24 5
35 15 35 10 0 15 -11 15 -35z m410 0 c0 -24 -5 -35 -15 -35 -10 0 -15 11 -15
35 0 24 5 35 15 35 10 0 15 -11 15 -35z m258 -2 l3 -33 -90 0 -91 0 0 35 0 36
88 -3 87 -3 3 -32z m-778 -73 c0 -36 -18 -42 -110 -38 l-65 3 -3 33 -3 32 90
0 91 0 0 -30z m110 -5 c0 -26 -3 -33 -15 -29 -9 4 -15 19 -15 35 0 19 5 29 15
29 10 0 15 -11 15 -35z m410 5 c0 -20 -5 -30 -15 -30 -10 0 -15 10 -15 30 0
20 5 30 15 30 10 0 15 -10 15 -30z m258 -2 l-3 -33 -65 -3 c-92 -4 -110 2
-110 38 l0 30 91 0 90 0 -3 -32z"/>
<path d="M82 1090 c0 -14 2 -19 5 -12 2 6 2 18 0 25 -3 6 -5 1 -5 -13z"/>
<path d="M2400 1072 c0 -46 -12 -55 -56 -43 -50 14 -54 14 -54 -3 0 -10 19
-19 56 -26 30 -7 57 -10 58 -8 1 1 7 24 13 50 8 37 7 48 -4 52 -9 4 -13 -3
-13 -22z"/>
<path d="M219 1070 l-56 -15 14 -48 c17 -59 46 -76 89 -55 26 12 29 18 27 60
-2 72 -8 77 -74 58z m57 -47 c10 -39 -39 -71 -63 -40 -23 29 -23 48 0 57 39
16 56 11 63 -17z"/>
<path d="M2471 1064 c0 -11 3 -14 6 -6 3 7 2 16 -1 19 -3 4 -6 -2 -5 -13z"/>
<path d="M91 1034 c0 -11 3 -14 6 -6 3 7 2 16 -1 19 -3 4 -6 -2 -5 -13z"/>
<path d="M1233 1028 c-52 -11 -100 -57 -108 -101 -3 -18 -5 -147 -3 -287 l3
-255 153 -2 152 -2 0 284 0 284 -30 35 c-18 20 -44 37 -63 41 -18 4 -39 8 -47
10 -8 1 -34 -2 -57 -7z"/>
<path d="M2461 1014 c0 -11 3 -14 6 -6 3 7 2 16 -1 19 -3 4 -6 -2 -5 -13z"/>
<path d="M2258 920 l-26 -71 39 -20 c41 -20 50 -47 25 -68 -11 -10 -23 -8 -55
8 -26 14 -42 17 -46 10 -8 -13 -10 -12 43 -38 49 -25 62 -20 88 30 19 37 10
56 -40 81 -51 26 -37 33 28 14 35 -11 48 -11 51 -3 29 84 32 96 21 100 -6 2
-16 -12 -21 -32 -6 -20 -18 -37 -28 -39 -15 -3 -16 0 -7 23 12 33 12 35 0 35
-6 0 -15 -11 -20 -25 -13 -35 -34 -33 -27 3 3 15 9 35 12 45 4 9 3 17 -3 17
-5 0 -21 -32 -34 -70z"/>
<path d="M2451 974 c0 -11 3 -14 6 -6 3 7 2 16 -1 19 -3 4 -6 -2 -5 -13z"/>
<path d="M254 926 l-50 -21 20 -50 c23 -58 24 -60 32 -52 3 3 1 22 -6 42 -15
47 2 73 21 32 13 -28 36 -39 25 -12 -3 8 -9 22 -12 30 -4 9 0 15 9 15 9 0 21
-16 28 -35 7 -19 16 -35 19 -35 17 0 16 14 -1 50 -11 21 -19 44 -19 50 0 13
-5 12 -66 -14z"/>
<path d="M567 944 c-4 -4 -7 -75 -7 -159 l0 -151 33 -31 c60 -57 128 -103 153
-103 l24 0 -2 223 -3 222 -95 3 c-53 1 -99 0 -103 -4z"/>
<path d="M1797 944 c-4 -4 -7 -106 -7 -226 l0 -218 24 0 c24 0 121 66 164 112
22 24 22 31 20 179 l-3 154 -95 3 c-53 1 -99 0 -103 -4z"/>
<path d="M150 835 c0 -5 5 -17 10 -25 5 -8 10 -10 10 -5 0 6 -5 17 -10 25 -5
8 -10 11 -10 5z"/>
<path d="M315 804 c-22 -13 -44 -25 -49 -27 -5 -1 2 -23 14 -47 27 -55 26 -53
39 -46 6 4 2 20 -10 41 l-21 34 45 22 c29 14 43 27 40 36 -7 17 -10 16 -58
-13z"/>
<path d="M2386 795 c-9 -26 -7 -32 5 -12 6 10 9 21 6 23 -2 3 -7 -2 -11 -11z"/>
<path d="M2156 709 c-33 -39 -31 -74 5 -101 22 -17 29 -18 53 -7 27 13 56 55
56 81 0 7 -9 19 -20 25 -16 11 -21 9 -35 -9 -21 -31 -19 -45 4 -24 29 27 35 2
7 -31 -20 -23 -28 -26 -43 -17 -28 17 -28 59 -1 78 16 11 19 19 11 27 -7 7
-18 1 -37 -22z"/>
<path d="M2335 690 c-9 -16 -13 -30 -11 -30 3 0 12 14 21 30 9 17 13 30 11 30
-3 0 -12 -13 -21 -30z"/>
<path d="M230 670 c6 -11 13 -20 16 -20 2 0 0 9 -6 20 -6 11 -13 20 -16 20 -2
0 0 -9 6 -20z"/>
<path d="M398 652 c-47 -35 -53 -66 -9 -43 17 10 23 8 36 -13 28 -42 75 -44
75 -3 0 16 -47 100 -54 96 0 0 -22 -17 -48 -37z m82 -53 c0 -17 -25 -9 -38 11
-19 31 -3 48 20 21 10 -13 18 -27 18 -32z"/>
<path d="M2285 608 c-16 -24 -22 -38 -14 -31 15 12 53 73 46 73 -2 0 -17 -19
-32 -42z"/>
<path d="M260 621 c5 -11 15 -23 21 -27 6 -3 3 5 -6 20 -20 30 -30 35 -15 7z"/>
<path d="M2084 619 c-11 -18 77 -90 94 -77 7 6 11 11 10 12 -2 1 -24 18 -50
39 -32 26 -49 34 -54 26z"/>
<path d="M2031 586 c-11 -13 -10 -24 2 -61 17 -50 16 -51 -40 -31 -31 11 -42
11 -56 2 -14 -11 -10 -18 37 -65 36 -35 56 -49 61 -41 4 7 -6 26 -26 46 -37
39 -35 40 21 18 23 -9 43 -14 45 -12 3 3 -1 26 -9 51 -16 55 -7 60 27 16 19
-24 28 -29 41 -22 13 7 8 17 -37 61 -47 46 -55 51 -66 38z"/>
<path d="M311 550 c29 -45 194 -210 239 -239 32 -21 32 -20 -5 10 -52 42 -182
172 -224 224 -30 37 -31 37 -10 5z"/>
<path d="M2151 447 c-88 -94 -92 -100 -27 -37 67 65 145 151 134 149 -1 0 -50
-51 -107 -112z"/>
<path d="M488 532 c-46 -16 -62 -40 -24 -34 29 4 58 -26 46 -48 -7 -13 -5 -21
4 -29 11 -10 18 0 35 50 29 85 23 91 -61 61z m42 -27 c0 -8 -4 -15 -9 -15 -13
0 -22 16 -14 24 11 11 23 6 23 -9z"/>
<path d="M587 443 c-24 -32 -32 -51 -26 -58 7 -7 15 -4 24 9 19 25 35 12 35
-29 0 -20 6 -35 15 -39 11 -4 15 2 15 22 0 19 5 28 18 28 9 1 24 4 32 7 8 4
22 2 30 -3 13 -8 12 -15 -8 -51 -16 -27 -21 -44 -14 -51 7 -7 18 4 34 31 23
40 41 51 53 31 7 -11 25 -4 25 8 0 4 -26 21 -57 37 -32 17 -64 37 -73 45 -8 9
-27 26 -41 38 l-26 23 -36 -48z m74 -12 c13 -11 21 -23 16 -27 -10 -10 -57 16
-57 33 0 18 14 16 41 -6z"/>
<path d="M1865 411 c-3 -5 -1 -12 5 -16 5 -3 15 -15 21 -27 11 -20 9 -20 -27
-13 -22 4 -44 11 -50 16 -6 5 -15 4 -22 -3 -9 -9 -5 -23 15 -60 14 -26 29 -48
33 -48 18 0 18 15 0 40 -11 16 -20 30 -20 33 0 3 25 -1 55 -9 31 -8 60 -12 65
-9 10 6 -48 105 -61 105 -4 0 -10 -4 -14 -9z"/>
<path d="M807 294 c-17 -34 -23 -56 -16 -60 12 -7 9 -11 42 50 32 57 31 52 14
59 -9 3 -23 -14 -40 -49z"/>
<path d="M2000 309 c-35 -31 -35 -31 -3 -9 18 11 35 25 38 30 10 16 2 11 -35
-21z"/>
<path d="M1695 318 c-8 -25 -10 -128 -2 -128 4 0 12 11 17 24 10 28 45 43 64
27 8 -6 21 -9 30 -5 12 5 4 16 -37 50 -56 47 -65 51 -72 32z m42 -45 c2 -6 -3
-13 -12 -16 -10 -5 -15 0 -15 14 0 21 21 22 27 2z"/>
<path d="M861 279 c-7 -23 -15 -47 -17 -54 -8 -19 82 -48 107 -34 20 10 33 46
27 76 -3 18 -60 52 -89 53 -10 0 -20 -15 -28 -41z m83 -8 c33 -37 -18 -80 -61
-53 -10 6 -10 15 -1 40 14 36 37 41 62 13z"/>
<path d="M1545 298 c-34 -19 -43 -41 -26 -67 6 -10 26 -14 60 -12 28 1 51 -3
51 -8 0 -16 -40 -33 -66 -28 -14 2 -25 -1 -28 -9 -4 -11 6 -14 37 -14 55 0 89
23 85 58 -3 25 -7 27 -60 30 -32 2 -58 7 -58 13 0 14 45 29 69 22 15 -4 21 -1
21 11 0 19 -54 22 -85 4z"/>
<path d="M1012 254 c-22 -15 -30 -57 -14 -80 10 -15 47 -34 67 -34 21 0 65 44
65 65 0 24 -46 65 -72 65 -13 0 -34 -7 -46 -16z m72 -20 c9 -8 16 -22 16 -29
0 -15 -27 -45 -41 -45 -17 0 -50 41 -43 53 24 41 43 47 68 21z"/>
<path d="M1904 244 c-18 -14 -18 -15 4 -4 12 6 22 13 22 15 0 8 -5 6 -26 -11z"/>
<path d="M650 246 c0 -3 9 -10 20 -16 11 -6 20 -8 20 -6 0 3 -9 10 -20 16 -11
6 -20 8 -20 6z"/>
<path d="M1371 243 l-34 -4 6 -56 c3 -30 8 -57 10 -60 8 -8 107 9 107 19 0 5
-19 8 -42 7 -49 -4 -64 16 -19 26 41 9 41 30 1 22 -22 -5 -30 -3 -30 7 0 9 16
17 40 21 22 4 40 11 40 16 0 9 -16 9 -79 2z"/>
<path d="M1198 180 l-3 -60 52 0 c42 0 55 4 67 22 36 51 3 98 -68 98 l-44 0
-4 -60z m96 18 c15 -25 -4 -53 -38 -53 -14 0 -26 3 -26 8 0 4 0 21 0 38 0 27
3 30 26 27 15 -2 32 -11 38 -20z"/>
<path d="M1820 200 c-30 -16 -51 -29 -47 -30 10 0 107 49 107 55 0 7 1 7 -60
-25z"/>
<path d="M1680 140 c-8 -5 -10 -10 -5 -10 6 0 17 5 25 10 8 5 11 10 5 10 -5 0
-17 -5 -25 -10z"/>
<path d="M1638 123 c7 -3 16 -2 19 1 4 3 -2 6 -13 5 -11 0 -14 -3 -6 -6z"/>
<path d="M1568 103 c7 -3 16 -2 19 1 4 3 -2 6 -13 5 -11 0 -14 -3 -6 -6z"/>
<path d="M1028 93 c7 -3 16 -2 19 1 4 3 -2 6 -13 5 -11 0 -14 -3 -6 -6z"/>
<path d="M1518 93 c7 -3 16 -2 19 1 4 3 -2 6 -13 5 -11 0 -14 -3 -6 -6z"/>
<path d="M1078 83 c6 -2 18 -2 25 0 6 3 1 5 -13 5 -14 0 -19 -2 -12 -5z"/>
<path d="M1468 83 c7 -3 16 -2 19 1 4 3 -2 6 -13 5 -11 0 -14 -3 -6 -6z"/>
<path d="M1158 73 c12 -2 30 -2 40 0 9 3 -1 5 -23 4 -22 0 -30 -2 -17 -4z"/>
<path d="M1378 73 c12 -2 30 -2 40 0 9 3 -1 5 -23 4 -22 0 -30 -2 -17 -4z"/>
</g>
</svg>
